<?xml version="1.0" encoding="utf-8"?>
<!-- Generator: Adobe Illustrator 19.1.0, SVG Export Plug-In . SVG Version: 6.00 Build 0)  -->
<svg version="1.1" id="Слой_1" xmlns="http://www.w3.org/2000/svg" xmlns:xlink="http://www.w3.org/1999/xlink" x="0px" y="0px"
	 viewBox="0 0 2279.4 2179.2" style="enable-background:new 0 0 2279.4 2179.2;" xml:space="preserve">
<style type="text/css">
	.st0{fill:#1D5B99;}
</style>
<g>
	<path class="st0" d="M1207.4,18.7c49.8,62.2-12.4,120.3-12.4,186.6l-4.2,439.6c-24.9,4.2-49.8,12.4-74.6,20.7v-8.3L1099.6,197
		c-8.3-66.4-33.2-157.6,41.5-194.9C1161.8-2,1190.8-2,1207.4,18.7L1207.4,18.7z M286.8,520.5c12.4-49.8,53.9-95.4,78.8-145.1
		c49.8-53.9,103.7-103.7,170-124.4l16.6-12.4C498.3,342.2,386.3,450,286.8,520.5z M1912.4,358.7c41.5,45.6,70.5,99.5,91.2,153.4
		L1870.9,396c-45.6-45.6-91.2-95.4-120.3-149.3C1812.8,267.5,1862.6,309,1912.4,358.7L1912.4,358.7z M1340.1,275.8
		c-4.2,8.3-12.4,12.4-20.8,16.6c-16.6,0-37.3-8.3-53.9-8.3c16.6-4.2,33.2-16.6,49.8-16.6C1323.5,259.2,1336,267.5,1340.1,275.8z"/>
	<path class="st0" d="M1464.5,441.7c33.2,62.2,24.9,149.3-16.6,207.3c-74.7,112-215.6,107.8-331.8,145.1
		c-45.6,8.3-95.4,45.6-107.8,95.4c-4.2,41.5,24.9,70.5,53.9,91.2l16.6,8.3l4.1,87.1c-70.5-12.4-153.4-62.2-170-136.8
		c-4.2-41.5,0-82.9,16.6-116.1c82.9-157.6,277.8-112,406.4-194.9c12.4-16.6,29-33.2,37.3-49.8c-16.6-12.4-37.3-24.9-62.2-29
		c-24.9-12.4-53.9-16.6-83-24.9v-24.9c53.9,12.4,103.7,24.9,149.3,53.9c4.2-12.4,4.2-29,0-41.5c-4.2-58.1-62.2-99.5-116.1-112
		c-8.3-4.2-20.7-8.3-33.2-4.2v-87.1C1323.5,313.1,1414.7,354.6,1464.5,441.7L1464.5,441.7z M2119.7,727.8c-4.2,12.4-4.2,29-8.3,41.5
		c-66.4-103.7-194.9-170-248.8-282c58.1,29,132.7,66.4,174.2,132.7c20.8,29,37.3,58.1,53.9,87.1c0-41.5-16.6-78.8-24.9-116.1
		c-24.9-62.2-29-132.7-49.8-194.9C2103.1,483.2,2140.5,599.3,2119.7,727.8L2119.7,727.8z M1555.7,416.8l12.4,12.4
		c-16.6,0-37.3-4.1-45.6-20.7C1535,408.5,1551.6,400.2,1555.7,416.8z M199.7,682.2c12.4,0,12.4-12.4,20.7-20.7
		c16.6-41.5,49.8-74.6,87.1-103.7l132.7-95.4c-24.9,74.6-99.5,145.1-165.9,194.9c-34,34-65.8,70-95.4,107.8
		c-16.6-124.4-20.7-261.2,62.2-356.6C253.6,508,220.4,591,199.7,682.2L199.7,682.2z"/>
	<path class="st0" d="M2206.8,852.2l-53.9,186.6v4.2c-16.6-37.3-24.9-74.6-49.8-107.8L2016,810.8c-20.8-41.5-41.5-82.9-41.5-128.6
		l95.5,116.1c37.3,49.8,49.8,112,78.8,165.9c12.4-82.9,0-178.3,12.4-261.2c4.2-41.5,16.6-74.6,12.4-116.1
		C2211,665.6,2227.6,765.1,2206.8,852.2z M137.5,864.7c4.2,37.3-8.3,78.8,8.3,112c4.2-16.6,4.2-33.2,12.4-49.8
		C183.1,839.8,237,761,307.5,686.4c-12.4,141-145.1,232.2-161.7,369.1C96,918.7,13.1,744.5,108.5,599.3
		C112.6,690.5,125,777.6,137.5,864.7L137.5,864.7z M1501.8,748.5l-4.2,4.1c-8.3-4.1-4.1-12.4-4.1-16.6
		C1497.7,740.3,1501.8,740.3,1501.8,748.5z M1506,794.2c0,4.2-4.2,4.2-4.2,8.3h-16.6c-4.1-12.4,4.2-24.9,16.6-29
		C1501.8,781.7,1518.4,790,1506,794.2z M1174.2,1225.5c-20.7,4.1-37.3,12.4-58.1,12.4l-8.3-406.4c20.7-12.4,49.8-12.4,70.5-20.7
		l-4.2,306.9v107.8H1174.2z M1493.5,835.6c0,4.2-8.3,8.3-12.4,4.2c0-4.2-12.5-8.3-4.2-12.4C1485.2,827.3,1489.4,831.5,1493.5,835.6z
		"/>
	<path class="st0" d="M8.9,864.7c24.9,120.3,112,215.6,141,335.9c8.3,20.7,12.4,45.6,24.9,66.3c8.3-33.2,4.2-70.5,8.3-107.8
		c8.3-83,24.9-165.9,74.6-236.4c24.9,149.3-66.4,261.3-62.2,406.4L71.1,1167.4C13.1,1080.3-15.9,972.5,8.9,864.7L8.9,864.7z
		 M1078.8,881.2v62.2c-16.6-12.4-33.2-29-33.2-49.8c0-8.3,0-16.6,8.3-24.9C1062.3,872.9,1070.5,877.1,1078.8,881.2z M2248.3,1096.9
		l-41.5,74.7l-95.4,132.7l-33.2,58.1c8.3-157.6-78.8-290.3-53.9-452c53.9,112,91.2,232.2,78.8,364.9c16.6-16.6,16.6-33.2,24.9-49.8
		l58-132.7c29-66.4,58.1-136.8,83-207.3C2293.9,955.9,2269,1030.5,2248.3,1096.9L2248.3,1096.9z M1306.9,1080.3
		c33.2,24.9,45.6,66.3,37.3,112c-8.3,33.2-29,70.5-62.2,87.1c-45.6,20.8-95.4,29-145.1,45.6c-16.6,12.4-45.6,24.9-45.6,49.8v74.7
		c-29-8.3-49.8-37.3-53.9-66.3c-8.3-33.2,0-70.5,29-91.2c62.2-45.6,145.1-37.3,194.9-99.5c8.3-12.4,4.2-33.2-4.2-45.6
		c-12.4-16.6-29-20.7-45.6-33.2V1039C1248.9,1043,1277.9,1059.6,1306.9,1080.3L1306.9,1080.3z M788.6,1113.5
		c-8.3,0-16.6-4.2-16.6-12.4c4.2-8.3,4.2-20.7,8.3-29C796.9,1076.2,784.4,1101,788.6,1113.5z M1083,1134.2c-4.1,0,0,12.4-8.3,8.3
		c-4.2-4.2-8.3-8.3-4.2-12.4C1074.7,1125.9,1083,1125.9,1083,1134.2z M788.6,1163.2c-8.3,4.2-12.4-4.1-12.4-8.3
		c0-8.3,4.1-12.4,8.3-20.8C792.7,1142.5,784.4,1154.9,788.6,1163.2z"/>
	<path class="st0" d="M1224,1163.2c4.1,8.3,4.1,16.6,4.1,24.9c-8.3,8.3-16.6,12.5-29,12.5c-4.2-12.5,20.7-20.8,12.4-37.3
		C1215.7,1167.4,1219.8,1163.2,1224,1163.2z M2011.9,1519.9c41.5-33.2,53.9-78.8,82.9-116.1L2186,1296c20.8-29,41.5-49.8,62.2-78.8
		c-16.6,153.4-136.8,273.7-261.3,369.1l-37.3,37.3c37.3-91.2,41.5-211.5,20.8-311c-4.2-45.6,12.4-91.2,24.9-132.7
		C2016.1,1283.5,2045.1,1412.1,2011.9,1519.9L2011.9,1519.9z M162.4,1378.9c29,41.5,58.1,82.9,91.2,124.4
		c-4.1-103.7-20.7-223.9,16.6-319.3c20.7,29,20.7,66.3,29,99.5l4.1,49.8v199c0,24.9,12.4,45.6,16.6,70.5l-124.4-95.4
		c-99.5-91.2-170-194.9-186.6-323.5L162.4,1378.9L162.4,1378.9z M1083,1233.7c0,4.2-4.1,8.3-8.3,4.2c4.2-8.3,4.2-20.8,12.4-29
		C1091.3,1217.1,1087.1,1225.5,1083,1233.7z M1066.4,1246.2l-4.2,4.2c-4.2-4.2,0-16.6-4.2-20.8
		C1066.4,1229.6,1062.3,1242,1066.4,1246.2z M423.6,1271.1c4.1,8.3,0,16.6-4.2,24.9c-4.2-8.3-12.4-12.4-8.3-24.9
		C411.2,1262.8,423.6,1266.9,423.6,1271.1z M1165.9,1781.1c-8.3,8.3-4.2,12.4-12.4,16.6c-12.4,8.3-20.7-8.3-24.9-16.6l-4.1-273.7
		l-4.2-136.9c12.4-12.4,33.2-12.4,49.8-20.7v132.7L1165.9,1781.1z"/>
	<path class="st0" d="M1846,1723.1c-4.2,12.4-12.4,20.8-12.4,29c128.5-74.6,253-161.7,369.1-261.2
		c-62.2,211.5-294.4,253-456.1,335.9c95.4-124.4,74.6-298.6,174.2-423C1916.5,1519.9,1899.9,1631.8,1846,1723.1L1846,1723.1z
		 M402.9,1503.3c37.3,103.7,45.6,219.8,107.8,311c-120.3-49.8-253-82.9-352.5-186.6c-37.3-41.5-66.4-82.9-82.9-132.7
		c4.2-4.2,8.3,0,8.3,4.1c91.2,82.9,194.9,120.3,286.1,199.1c24.9,16.6,41.5,41.5,66.4,49.8c-12.4-45.6-41.5-87.1-58.1-132.7
		c-20.7-62.2-37.3-132.7-29-207.3C373.9,1432.8,386.3,1470.1,402.9,1503.3L402.9,1503.3z M1074.7,1478.4c-4.2,4.2-12.4,4.2-16.6,0
		l-4.2-8.3h-4.1c-8.3-12.4-12.4-24.9-12.4-37.3C1045.7,1449.4,1066.4,1461.8,1074.7,1478.4z"/>
	<path class="st0" d="M1070.5,209.5C879.7,226.1,718,309,577,450l95.4,91.2C780.2,433.4,908.8,379.5,1045.6,338l24.9-8.3v82.9
		c-53.9,29-91.2,95.4-145.1,116.1c-29,20.7-62.2,41.5-95.4,58.1c-12.4-8.3-24.9,4.2-33.2,12.4l-16.6,37.3c-4.1-8.3,0-16.6,4.2-24.9
		c-8.3,0-20.7,4.2-29,4.2c20.7-12.4,53.9-20.7,49.8-49.8c4.1-45.6,33.2-82.9,49.8-124.4c0-4.2,4.2-8.3,4.2-8.3
		c-62.2,29-116.1,74.6-170,124.4c12.4,16.6,29,29,41.5,45.6l-8.3,8.3l-41.5-41.5c-116.1,120.3-170,273.7-174.2,439.6h128.6
		c0-136.9,49.8-253,136.8-352.5l-4.2-4.2l4.2-8.3l8.3,4.2c82.8-86.9,182.3-132.6,294.3-153.3v24.9c-107.8,16.6-199,62.2-282,145.1
		l112,112c20.7-24.9,45.6-37.3,70.5-53.9c8.3,8.3,0,20.7-8.3,24.9c-66.4,41.5-107.8,107.8-128.6,178.3c8.3,4.2,12.4-20.7,29-16.6
		c8.3,0,0-12.4,12.4-8.3c4.2,8.3,4.2,29,4.2,41.5c8.3,53.9,49.8,112,103.7,136.9l29,8.3c-4.2,4.1-20.7,8.3-20.7,20.7
		c0,4.2-4.2,8.3-4.2,12.4c8.3,8.3-8.3,20.8,0,29c12.4-8.3,33.2-20.7,33.2-37.3c12.4-16.6,29-20.8,45.6-24.9
		c4.2,4.1,8.3,4.1,12.4,12.5c0,4.1-4.1,4.1-8.3,8.3l-33.2,29l-8.3-4.2l-116,116.1c29,33.2,66.4,49.8,103.7,66.3
		c-4.1,4.2-4.1,16.6-8.3,12.4c-37.3-16.6-74.6-37.3-103.7-70.5l-95.4,95.4c12.4,8.3,12.4,37.3,33.2,41.5c12.4,8.3,12.4,16.6,12.4,29
		c70.5,49.8,149.3,82.9,232.2,91.2v16.7c-87.1-4.2-170-37.3-244.7-87.1c-37.3-12.4-58.1,24.9-95.4,20.8c-12.4-4.2-29-8.3-45.6-4.2
		l-16.6,16.6c112,116.1,248.8,174.2,402.3,186.6l-4.2,20.7c-149.3-12.4-286.1-70.5-398.1-178.3l-16.6-12.4l-91.2,91.2
		c145.1,153.4,323.5,232.2,526.7,244.7c223.9,0,418.8-74.7,580.6-228.1c0-4.2,4.2-8.3,4.2-8.3l-95.4-95.4
		c-49.8,49.8-112,91.2-174.2,124.4c-29,16.6-49.8,41.5-82.9,49.8l-12.4-12.4c-41.5,8.3-83,20.7-124.4,24.9l-4.1-20.7
		c29-4.2,62.2-8.3,91.2-16.6c0-16.6-24.9-24.9-37.3-33.2c-12.4-12.4-24.9-29-16.6-49.8c16.6,20.7,29,49.8,53.9,53.9
		c29-24.9,12.4-70.5,12.4-103.7c-8.3-8.3-20.7,0-29,0c8.3,8.3,8.3,24.9,12.4,37.3c4.2,8.3,0,16.6,4.2,24.9
		c-12.4-4.2-20.7-20.8-29-33.2c-8.3-8.3-12.4-20.7-24.9-20.7l-29,8.3v-20.7c4.2,0,8.3,0,16.6-4.2c-33.2,0-12.4-33.2-16.6-49.8
		c20.7,8.3,41.5,24.9,53.9,41.5c8.3-4.1,24.9-4.1,20.8-12.4c-20.8-24.9-45.6-45.6-74.7-58.1v-87.1c66.3-20.8,136.8-49.8,165.9-120.3
		c12.4-53.9,8.3-116.1-33.2-153.4c-37.3-33.2-83-53.9-128.6-66.4V843.9l24.9-12.4c12.4,16.6-16.6,41.5,12.4,49.8
		c16.6,0,16.6-16.6,20.8-24.9c0-8.3,8.3-20.7,16.6-24.9c16.6,0,20.8-24.9,41.5-16.6l153.4-153.4c-8.3-8.3,4.1-20.7,4.1-29l16.6,12.4
		c4.2-16.6,45.6-29,20.8-49.8l-12.4-12.4c16.6-49.8,12.4-107.8-12.5-149.3c0-4.2,4.2-8.3,8.3-12.4c16.6,12.4,33.2,33.2,58.1,29
		c12.4,16.6,33.2,33.2,29,58.1c4.1,8.3,12.4,16.6,24.9,16.6l82.9-82.9c-128.6-141-290.3-207.3-468.6-232.2v-37.3
		c286.1,24.9,580.6,257.1,680.1,535c128.6,335.9,29,717.4-240.5,957.9c-145.1,120.2-306.9,190.7-501.8,194.9
		c-215.6,8.3-402.3-58.1-559.8-190.8C345,1437.1,241.3,1068,365.7,736.3C436.2,504.1,660.1,276,892.4,209.6
		c58.1-20.7,116.1-33.2,178.3-41.5L1070.5,209.5L1070.5,209.5L1070.5,209.5z M908.8,441.7c-8.3,4.2-12.4,8.3-12.4,16.6
		c4.1,4.2,4.1,16.6,16.6,12.4c8.3-4.2,16.6-8.3,12.4-16.6C921.3,445.8,913,437.5,908.8,441.7z M1713.3,450l-82.9,82.9l20.7,24.9
		c20.8,16.6,20.8,53.9,53.9,58.1c8.3,37.3,45.6,62.2,66.3,95.4c12.4,24.9-20.8,16.6-29,33.2c37.3,78.8,58.1,170,53.9,265.4h132.7
		C1924.8,798.3,1854.3,607.5,1713.3,450L1713.3,450z M568.8,458.3c-141,157.6-211.5,344.2-219.8,551.5h132.7
		C490,835.6,548,682.2,664.2,553.6C631,520.5,602,487.3,568.8,458.3L568.8,458.3z M1539.1,628.3l-29,24.9
		c37.3,37.3,53.9,87.1,95.4,116.1c0,20.7,8.3,33.2,12.4,49.8c-8.3,8.3,4.2,16.6,4.2,24.9c4.1-8.3,0-24.9,8.3-29
		c29,16.6,0,45.6,4.2,70.5c12.4,37.3,12.4,82.9,20.7,124.4h120.3c0-87.1-16.6-170-49.8-244.7c-4.1,0-8.3,4.2-12.4,4.2
		c-16.6-16.6-24.9-41.5-37.3-62.2c-8.3-4.2-20.8-4.2-29-4.2c-4.2,0-12.4-12.4-16.6-8.3c-12.4-12.4-33.2-4.2-45.6-12.4
		C1576.5,657.3,1551.6,649,1539.1,628.3L1539.1,628.3z M896.4,781.7l-112-107.8c-87.1,95.4-124.4,207.3-132.7,335.9h91.2
		c8.3-12.4,20.7-16.6,29-24.9c4.2-24.9,33.2-20.7,45.6-45.6c16.6-53.9,41.5-107.8,78.8-153.4L896.4,781.7L896.4,781.7L896.4,781.7z
		 M1489.4,673.9l-103.7,107.8c8.3,12.4,16.6,33.2,33.2,29c0,4.2-4.2,8.3-8.3,8.3c12.4,20.7,37.3,24.9,58,24.9
		c12.5,4.2,8.3,16.6,12.5,24.9c20.7,12.4,0,33.2,8.3,49.8c12.4-4.2,20.8-24.9,37.3-20.7c16.6,8.3,4.2,29,12.4,41.5
		c29,4.1,37.3-24.9,45.6-41.5c12.4,24.9-8.3,49.8-24.9,66.3c-8.3,4.2-16.6,4.2-24.9,8.3c0,16.6-12.4,33.2-24.9,37.3h120.2
		c0-16.6,0-41.5-4.2-58.1c-4.1,4.2-12.4,16.6-20.7,12.4c-4.2-24.9-4.2-62.2,4.1-91.2c-4.1-4.1-4.1-20.7-12.4-16.6
		c-4.1-33.2-45.6-49.8-45.6-78.8h16.6l-12.3-20.7c0,4.1,0,8.3-4.1,12.4c-24.9-8.3-20.8-33.2-29-53.9
		C1506,707.1,1510.1,682.2,1489.4,673.9L1489.4,673.9z M1369.1,798.3h-4.2c8.3,0,8.3,4.2,12.4,4.2L1369.1,798.3z M1344.2,823.2
		l-24.9,20.7c12.4,8.3,24.9,0,41.5,4.2c12.4,4.1-4.2,20.7,8.3,29c0-4.2,4.1,0,4.1,0c4.2-8.3,0-16.6-4.1-24.9
		c8.3-8.3,20.7-8.3,29-12.4c4.2-8.3-4.1-12.4-4.1-16.6c-12.4,4.2-29,0-37.3,8.3C1352.5,831.5,1344.2,831.5,1344.2,823.2z
		 M1302.8,843.9c-4.1-4.1,8.3-8.3,8.3-12.4L1302.8,843.9z M349,1026.4c8.3,211.5,74.6,398.1,219.8,551.6
		c33.2-33.2,66.4-62.2,95.4-95.4l-45.6-45.6c-8.3-4.2-16.6,0-24.9-4.2c0-16.6-4.2-33.2-8.3-49.8c-16.6-16.6-41.5-16.6-62.2-20.8
		c-12.4-8.3-24.9-24.9-20.7-37.3c8.3-33.2-29-33.2-41.5-53.9c-16.6,0-20.7-12.5-29-20.8c-8.3,4.2-16.6,12.4-24.9,8.3
		c-4.2-8.3-4.2-24.9,0-29c12.4-29,37.3-16.6,58.1-16.6c12.4-8.3,24.9-12.4,37.3-16.6c-12.4-53.9-20.7-112-20.7-170L349,1026.4
		L349,1026.4z M631,1026.4H506.6c0,62.2,8.3,116.1,24.9,170c16.6,4.2,29,12.4,41.5,20.7c0-12.4-8.3-20.7-4.2-29
		c12.4-12.4,8.3-29,8.3-45.6c4.2-29,37.3-41.5,58.1-58.1L631,1026.4L631,1026.4z M651.7,1026.4l8.3,58.1
		c12.4,8.3,24.9,16.6,41.5,20.7c16.6-8.3,24.9-29,29-49.8C742.9,1005.7,680.7,1038.8,651.7,1026.4L651.7,1026.4z M788.6,1030.5
		c-16.6,4.2-12.4,29-33.2,33.2c0,16.6-8.3,29-20.7,41.5c-4.2,8.3-8.3,16.6,0,20.8c16.6,8.3,12.4,29,12.4,45.6
		c24.9,16.6,16.6,49.8,8.3,70.5c24.9,16.6,29,45.6,37.3,70.5c-8.3,4.1-12.4,12.4-8.3,24.9c0,8.3,8.3,8.3,16.6,8.3
		c29-33.2,66.4-62.2,95.4-95.4c-53.9-66.3-82.9-136.8-87.1-219.8C801,1026.4,796.9,1030.5,788.6,1030.5L788.6,1030.5z
		 M1497.7,1026.4c-4.1,20.7,8.3,41.5,8.3,58.1c0,4.2,4.2,12.4,8.3,12.4c8.3,0,4.2-8.3,12.4-12.4c16.6,0,29,12.4,41.5,20.7l-8.3,12.5
		c-16.6,4.1-24.9,20.7-41.5,20.7c-12.4,24.9-49.8,16.6-58.1,45.6c-4.2,4.1-8.3,16.6-16.6,8.3c8.3,37.3-41.5,33.2-53.9,58.1
		c12.4-20.8,41.5,0,45.6-24.9c8.3-8.3,12.4-4.2,20.7,0c-4.1,20.7-8.3,41.5-8.3,62.2c-4.2,4.2-8.3,20.8-16.6,20.8c0,0,0,4.2,4.2,4.2
		c4.1-8.3,12.4-16.6,16.6-20.8c37.3,4.2,8.3,53.9,33.2,70.5c91.2-95.4,136.9-203.2,145.1-335.9L1497.7,1026.4L1497.7,1026.4
		L1497.7,1026.4z M1651.1,1026.4c-8.3,136.8-53.9,257.1-145.1,352.5l16.6,20.7v-4.1c4.1-4.2,12.4-4.2,16.6,0
		c-4.1,33.2,37.3,49.8,53.9,74.6c116.1-124.4,174.2-269.5,182.5-443.7H1651.1L1651.1,1026.4L1651.1,1026.4z M1796.3,1026.4
		c-4.2,178.3-66.3,331.8-186.6,460.3l95.4,95.4l24.9-29c124.4-149.3,194.9-323.5,199.1-526.7L1796.3,1026.4L1796.3,1026.4z
		 M825.9,1030.5l4.2,33.2c4.2-8.3,4.2-16.6,4.2-29L825.9,1030.5z M838.3,1105.2c12.4,49.8,37.3,91.2,70.5,128.6l58.1-58.1
		c0-4.1-4.2-8.3-8.3-12.4c-29-8.3-24.9-41.5-53.9-53.9c-4.2,8.3-16.6,0-24.9,4.2C871.5,1096.9,850.8,1113.5,838.3,1105.2
		L838.3,1105.2z M1414.7,1312.5c-12.4,8.3-33.2,8.3-49.8,4.1l-4.2,8.3c20.8,8.3,41.5,0,62.2-4.2L1414.7,1312.5z M1493.5,1391.3
		l-33.2,29c0,16.6,16.6,24.9,29,33.2c-4.2,16.6-4.2,33.2-20.8,45.6c4.2,29-20.7,49.8-12.4,82.9c45.6-24.9,87.1-58,124.4-99.5l-29-29
		c0,8.3-4.2,16.6-8.3,20.7c-16.6-4.2-20.7-20.7-24.9-37.3C1535,1416.2,1501.8,1407.9,1493.5,1391.3L1493.5,1391.3z M684.9,1466h-4.2
		l-4.2-4.2C676.6,1461.8,680.7,1466,684.9,1466z M1638.7,1901.4c12.4,0,29-8.3,41.5-12.4c132.7-37.3,277.9-49.8,389.8-136.9
		l16.6-16.6c-4.2,20.8-16.6,37.3-24.9,58.1c-53.9,66.4-128.6,95.4-199.1,116.1c-91.2,33.2-203.2,12.4-298.6,33.2l41.5-66.3
		l95.4-194.9l87.1-91.2C1763.1,1702.3,1700.9,1801.9,1638.7,1901.4L1638.7,1901.4z M539.7,1656.7c49.8,62.2,82.9,128.6,107.8,203.2
		c20.7,24.9,33.2,53.9,45.6,82.9c-8.3,0-20.7-4.2-29-8.3l-153.4-8.2c-70.5-4.2-128.6-33.2-190.8-53.9
		c-49.8-29-99.5-70.5-128.6-120.3c41.5,20.8,87.1,45.6,136.8,58.1l174.2,45.6c24.9,0,41.5,16.6,62.2,24.9
		c29,8.3,53.9,20.8,82.9,24.9c-66.4-91.2-145.1-182.5-157.6-294.4C506.6,1619.4,527.3,1636,539.7,1656.7L539.7,1656.7z
		 M1078.8,1967.7c-20.7,16.6-45.6,29-66.4,45.6c-49.8-4.2-99.5,8.3-145.1,16.6c-132.7,33.2-306.9,66.3-427.1-16.6l-53.9-33.2
		c37.3,8.3,74.6,24.9,120.3,24.9c45.6,4.2,99.5,4.2,141-12.4l157.6-49.8C896.4,1926.3,1000.1,1926.3,1078.8,1967.7z M1696.7,1996.8
		c70.5,4.2,136.9,4.2,194.9-24.9c-82.9,74.6-190.7,99.5-306.9,95.4c-132.7-24.9-257.1-74.7-398.1-53.9
		c-66.4,20.7-132.7,33.2-186.6,82.9c-29,20.7-58.1,53.9-87.1,82.9c-10.3-10.2-23.2-17.3-37.3-20.8
		c153.4-149.3,331.8-248.8,551.5-211.5C1518.4,1959.4,1601.4,1996.8,1696.7,1996.8L1696.7,1996.8z"/>
	<path class="st0" d="M1398.1,2166.8c-12.4,8.3-24.9,8.3-37.3,12.4c-49.8-49.8-95.4-95.4-149.3-132.7c12.4-8.3,24.9-4.1,37.3-12.4
		C1298.6,2075.5,1356.7,2117,1398.1,2166.8z"/>
</g>
</svg>
